# Blender 3.3.1
# www.blender.org
mtllib level0.mtl
o Cylinder.003
v 0.000000 -0.196478 -1.000000
v 0.000000 0.196478 -1.000000
v 0.866025 -0.196478 -0.500000
v 0.866025 0.196478 -0.500000
v 0.866025 -0.196478 0.500000
v 0.866025 0.196478 0.500000
v 0.000000 -0.196478 1.000000
v 0.000000 0.196478 1.000000
v -0.866025 -0.196478 0.500000
v -0.866025 0.196478 0.500000
v -0.866025 -0.196478 -0.500000
v -0.866025 0.196478 -0.500000
v 0.685063 0.196478 -0.395521
v -0.685063 0.196478 -0.395521
v 0.000000 0.196478 0.791042
v -0.685063 0.196478 0.395521
v 0.000000 0.196478 -0.791042
v 0.685063 0.196478 0.395521
v 0.000000 -0.196478 -0.791042
v 0.685063 -0.196478 0.395521
v -0.685063 -0.196478 0.395521
v -0.685063 -0.196478 -0.395521
v 0.000000 -0.196478 0.791042
v 0.685063 -0.196478 -0.395521
v 0.000000 -0.121648 -0.906624
v 0.000000 0.121648 -0.906624
v 0.785160 -0.121648 -0.453312
v 0.785160 0.121648 -0.453312
v 0.785160 -0.121648 0.453312
v 0.785160 0.121648 0.453312
v 0.000000 -0.121648 0.906624
v 0.000000 0.121648 0.906624
v -0.785160 -0.121648 0.453312
v -0.785160 0.121648 0.453312
v -0.785160 -0.121648 -0.453312
v -0.785160 0.121648 -0.453312
vn 0.5000 -0.0000 -0.8660
vn 1.0000 -0.0000 -0.0000
vn 0.5000 -0.0000 0.8660
vn -0.5000 -0.0000 0.8660
vn -0.0000 1.0000 -0.0000
vn -1.0000 -0.0000 -0.0000
vn -0.5000 -0.0000 -0.8660
vn -0.0000 -1.0000 -0.0000
vt 1.000000 0.500000
vt -0.000000 0.500000
vt 0.750000 0.490000
vt 1.000000 1.000000
vt 0.250000 0.490000
vt -0.000000 1.000000
vt 0.833333 0.500000
vt 0.957846 0.370000
vt 0.833333 1.000000
vt 0.457846 0.370000
vt 0.666667 0.500000
vt 0.957846 0.130000
vt 0.666667 1.000000
vt 0.457846 0.130000
vt 0.500000 0.500000
vt 0.750000 0.010000
vt 0.500000 1.000000
vt 0.250000 0.010000
vt 0.333333 0.500000
vt 0.542154 0.130000
vt 0.042154 0.130000
vt 0.333333 1.000000
vt 0.166667 0.500000
vt 0.542154 0.370000
vt 0.042154 0.370000
vt 0.166667 1.000000
vt 0.414415 0.344925
vt 0.833333 0.911249
vt 0.085585 0.344925
vt 0.166667 0.911249
vt 0.250000 0.060150
vt 0.500000 0.911249
vt 0.085585 0.155075
vt 0.333333 0.911249
vt 0.250000 0.439850
vt 1.000000 0.911249
vt -0.000000 0.911249
vt 0.414415 0.155075
vt 0.666667 0.911249
vt 0.750000 0.439850
vt 1.000000 0.588751
vt -0.000000 0.588751
vt 0.914415 0.155075
vt 0.666667 0.588751
vt 0.585585 0.155075
vt 0.333333 0.588751
vt 0.585585 0.344925
vt 0.166667 0.588751
vt 0.750000 0.060150
vt 0.500000 0.588751
vt 0.914415 0.344925
vt 0.833333 0.588751
vt 1.000000 0.500000
vt -0.000000 0.500000
vt 0.750000 0.490000
vt 1.000000 1.000000
vt 0.250000 0.490000
vt -0.000000 1.000000
vt 0.833333 0.500000
vt 0.957846 0.370000
vt 0.833333 1.000000
vt 0.457846 0.370000
vt 0.666667 0.500000
vt 0.957846 0.130000
vt 0.666667 1.000000
vt 0.457846 0.130000
vt 0.500000 0.500000
vt 0.750000 0.010000
vt 0.500000 1.000000
vt 0.250000 0.010000
vt 0.333333 0.500000
vt 0.542154 0.130000
vt 0.042154 0.130000
vt 0.333333 1.000000
vt 0.166667 0.500000
vt 0.542154 0.370000
vt 0.042154 0.370000
vt 0.166667 1.000000
s 0
usemtl Border
f 1/1/1 2/4/1 4/9/1 3/7/1
f 3/7/2 4/9/2 6/13/2 5/11/2
f 5/11/3 6/13/3 8/17/3 7/15/3
f 7/15/4 8/17/4 10/22/4 9/19/4
f 16/33/5 10/21/5 8/18/5 6/14/5 18/38/5 15/31/5
f 18/38/5 6/14/5 4/10/5 2/5/5 12/25/5 10/21/5 16/33/5 14/29/5 17/35/5 13/27/5
f 9/19/6 10/22/6 12/26/6 11/23/6
f 11/23/7 12/26/7 2/6/7 1/2/7
f 11/24/8 1/3/8 3/8/8 24/51/8 19/40/8 22/47/8
f 3/8/8 5/12/8 7/16/8 9/20/8 11/24/8 22/47/8 21/45/8 23/49/8 20/43/8 24/51/8
f 24/52/4 13/28/4 17/36/4 19/41/4
f 18/39/6 13/28/6 24/52/6 20/44/6
f 15/32/7 18/39/7 20/44/7 23/50/7
f 16/34/1 15/32/1 23/50/1 21/46/1
f 22/48/2 14/30/2 16/34/2 21/46/2
f 19/42/3 17/37/3 14/30/3 22/48/3
f 25/53/1 26/56/1 28/61/1 27/59/1
f 27/59/2 28/61/2 30/65/2 29/63/2
f 29/63/3 30/65/3 32/69/3 31/67/3
f 31/67/4 32/69/4 34/74/4 33/71/4
f 33/71/6 34/74/6 36/78/6 35/75/6
usemtl Body
f 28/62/5 26/57/5 36/77/5 34/73/5 32/70/5 30/66/5
f 35/75/7 36/78/7 26/58/7 25/54/7
f 25/55/8 27/60/8 29/64/8 31/68/8 33/72/8 35/76/8
