# Made in Blockbench 4.10.3
mtllib Potion Bottle #5.mtl

o Body
v 0 0 0
v 0 1 0
v 0.13397459621556132 0 0.49999999999999994
v 0.13397459621556132 1 0.49999999999999994
v 0.3660254037844386 0 0.36602540378443865
v 0.3660254037844386 1 0.36602540378443865
v 0.49999999999999994 0 0.13397459621556132
v 0.49999999999999994 1 0.13397459621556132
v 0.49999999999999994 0 -0.13397459621556138
v 0.49999999999999994 1 -0.13397459621556138
v 0.36602540378443865 0 -0.3660254037844386
v 0.36602540378443865 1 -0.3660254037844386
v 0.1339745962155615 0 -0.4999999999999999
v 0.1339745962155615 1 -0.4999999999999999
v -0.13397459621556113 0 -0.5
v -0.13397459621556113 1 -0.5
v -0.3660254037844386 0 -0.3660254037844387
v -0.3660254037844386 1 -0.3660254037844387
v -0.49999999999999994 0 -0.13397459621556126
v -0.49999999999999994 1 -0.13397459621556126
v -0.5 0 0.1339745962155611
v -0.5 1 0.1339745962155611
v -0.3660254037844387 0 0.36602540378443854
v -0.3660254037844387 1 0.36602540378443854
v -0.1339745962155613 0 0.49999999999999994
v -0.1339745962155613 1 0.49999999999999994
v -0.45788748673232565 0.9933485550117913 0.005817412945083089
v -0.7069361612552623 1.0151374906987058 0.0058174129450832
v -0.4575097191308736 0.9976664584546753 0.20109309498331987
v -0.7067944984047176 1.016756704489787 0.07904579370942202
v -0.7070778241058067 1.0135182769076243 -0.0674109678192555
v -0.4673786543053768 0.8848640132375439 -0.1654634870076442
v -0.7104953490951564 0.9744557875333633 -0.058412924537189465
v -0.4739489035905485 0.8097657202658504 -0.09557412610092553
v -0.7129591925770957 0.9462939276689781 -0.03220441419716999
v -0.4762155091992597 0.7838582996085479 0.0014830158125195836
v -0.7138091696803623 0.9365786449224894 0.00419201402037192
v -0.4735711359890965 0.8140836237087341 0.09970155593731114
v -0.7128175297265513 0.9479131414600593 0.041023966567168696
v -0.4667243416262085 0.8923428413827954 0.17276391576524705
v -0.7102499818404682 0.9772603480878321 0.06842235150264472
v -0.4582652543337775 0.9890306515689077 -0.18945826909315355
vt 0.25881875958380607 0.870590620208097
vt 0.22414401080137072 1
vt 0 0.870590620208097
vt 0 0.75
vt 0.133975 0.75
vt 0.133975 1
vt 0 1
vt 0 0.7411809026438543
vt 0.12940921090595364 0.7758562817181833
vt 4.163336342344337e-17 1
vt 0.25881909735614567 0.8705907890940463
vt 0.22414371828181673 1
vt 0 0.8705907890940464
vt 0 0.75
vt 0.133975 0.75
vt 0.133975 1
vt 0 1
vt 2.7755575615628914e-17 0.7411812404161939
vt 0.12940937979190303 0.7758559891986293
vt 0 1
vt 0.25 0.866025
vt 0.25 1
vt 0 0.9330125
vt 0 0.75
vt 0.133975 0.75
vt 0.133975 1
vt 0 1
vt 0.25 0.866025
vt 0.25 1
vt 0 0.9330125
vt 2.7755575615628914e-17 0.7411812404161939
vt 0.12940937979190303 0.7758559891986293
vt 0 1
vt 0 0.75
vt 0.133975 0.75
vt 0.133975 1
vt 0 1
vt 0.25881909735614567 0.8705907890940463
vt 0.22414371828181673 1
vt 0 0.8705907890940464
vt 0 0.7411809026438543
vt 0.12940921090595364 0.7758562817181833
vt 4.163336342344337e-17 1
vt 0 0.75
vt 0.133975 0.75
vt 0.133975 1
vt 0 1
vt 0.25881875958380607 0.870590620208097
vt 0.22414401080137072 1
vt 0 0.870590620208097
vt 0 0.75
vt 0.133975 0.75
vt 0.0669875 1
vt 0 0.75
vt 0.133975 0.75
vt 0.133975 1
vt 0 1
vt 0.133975 1
vt 0 1
vt 0.0669875 0.75
vt 0 1
vt 0.034674748782435344 0.870590620208097
vt 0.25881875958380607 1
vt 0 0.75
vt 0.133975 0.75
vt 0.133975 1
vt 0 1
vt 0.12940921090595364 1
vt 0 0.9653246209256711
vt 0.1294092109059536 0.7411809026438543
vt 0 1
vt 0.03467537907432894 0.8705907890940463
vt 0.25881909735614567 1
vt 0 0.75
vt 0.133975 0.75
vt 0.133975 1
vt 0 1
vt 0.129409379791903 1
vt 0 0.9653252512175646
vt 0.12940937979190303 0.7411812404161939
vt 0 1
vt 0 0.866025
vt 0.25 0.9330125
vt 0 0.75
vt 0.133975 0.75
vt 0.133975 1
vt 0 1
vt 0 1
vt 0 0.866025
vt 0.25 0.9330125
vt 0.129409379791903 1
vt 0 0.9653252512175646
vt 0.12940937979190303 0.7411812404161939
vt 0 0.75
vt 0.133975 0.75
vt 0.133975 1
vt 0 1
vt 0 1
vt 0.03467537907432894 0.8705907890940463
vt 0.25881909735614567 1
vt 0.12940921090595364 1
vt 0 0.9653246209256711
vt 0.1294092109059536 0.7411809026438543
vt 0 0.75
vt 0.133975 0.75
vt 0.133975 1
vt 0 1
vt 0 1
vt 0.034674748782435344 0.870590620208097
vt 0.25881875958380607 1
vt 0.133975 1
vt 0 1
vt 0.0669875 0.75
vt 0 0.75
vt 0.133975 0.75
vt 0.133975 1
vt 0 1
vt 0 0.75
vt 0.133975 0.75
vt 0.0669875 1
vt 0 0.75
vt 0.133975 0.75
vt 0.133975 1
vt 0 1
vt 0.12940921090595364 1
vt 0 0.9653246209256711
vt 0.1294092109059536 0.7411809026438543
vt 0 1
vt 0.03467537907432894 0.8705907890940463
vt 0.25881909735614567 1
vt 0 0.75
vt 0.133975 0.75
vt 0.133975 1
vt 0 1
vt 0.129409379791903 1
vt 0 0.9653252512175646
vt 0.12940937979190303 0.7411812404161939
vt 0 1
vt 0 0.866025
vt 0.25 0.9330125
vt 0 0.75
vt 0.133975 0.75
vt 0.133975 1
vt 0 1
vt 0 1
vt 0 0.866025
vt 0.25 0.9330125
vt 0.129409379791903 1
vt 0 0.9653252512175646
vt 0.12940937979190303 0.7411812404161939
vt 0 0.75
vt 0.133975 0.75
vt 0.133975 1
vt 0 1
vt 0 1
vt 0.03467537907432894 0.8705907890940463
vt 0.25881909735614567 1
vt 0.12940921090595364 1
vt 0 0.9653246209256711
vt 0.1294092109059536 0.7411809026438543
vt 0 0.75
vt 0.133975 0.75
vt 0.133975 1
vt 0 1
vt 0 1
vt 0.034674748782435344 0.870590620208097
vt 0.25881875958380607 1
vt 0.133975 1
vt 0 1
vt 0.0669875 0.75
vt 0 0.75
vt 0.133975 0.75
vt 0.133975 1
vt 0 1
vt 0 0.75
vt 0.133975 0.75
vt 0.0669875 1
vt 0 1
vt 0.034674748782435344 0.870590620208097
vt 0.25881875958380607 1
vt 0 1
vt 0 1
vt 0 1
vt 0 1
vt 0 1
vt 0 1
vt 0 1
vt 0 1
vn 0 -1 0
vn 0.4999999999999999 0 0.8660254037844388
vn 0 1 0
vn 0 -1 0
vn 0.8660254037844388 0 0.5
vn 0 1 0
vn 0 -1 0
vn 1 0 0
vn 0 1 0
vn 0 -1 0
vn 0.8660254037844388 0 -0.5
vn 0 1 0
vn 0 -1 0
vn 0.5000000000000001 0 -0.8660254037844388
vn 0 1 0
vn 0 -1 0
vn 4.143408735633879e-16 0 -1
vn 0 1 0
vn 0 -1 0
vn -0.4999999999999996 0 -0.8660254037844389
vn 0 1 0
vn 0 -1 0
vn -0.8660254037844389 0 -0.4999999999999998
vn 0 1 0
vn 0 -1 0
vn -1 0 -2.0717043678169412e-16
vn 0 1 0
vn 0 -1 0
vn -0.8660254037844389 0 0.4999999999999996
vn 0 1 0
vn 0 -1 0
vn -0.4999999999999999 0 0.8660254037844386
vn 0 1 0
vn 0 -1 0
vn 0 0 1
vn 0 1 0
vn -0.44738814514978986 -0.16340207914580362 -0.8792858511941718
vn -0.9961946980917454 0.08715574274765966 -9.755729495672953e-16
vn 0.9961946980917458 -0.08715574274765746 -2.0074966832251048e-16
vn -0.49789308862439924 -0.5670751721038112 -0.6561464939199851
vn -0.9961946980917458 0.08715574274765533 1.7750496988516745e-15
vn 0.9961946980917458 -0.08715574274765722 -5.837589039378275e-16
vn -0.528008771817198 -0.8173573204397351 -0.23050758687659392
vn -0.996194698091746 0.08715574274765467 3.026506695528844e-15
vn 0.9961946980917458 -0.08715574274765724 -3.5659480557288007e-16
vn -0.5193835120968785 -0.8127118364027506 0.26408377143016654
vn -0.996194698091746 0.08715574274765481 -3.968034379708097e-15
vn 0.9961946980917458 -0.08715574274765742 -7.184724971542471e-16
vn -0.4833495202165056 -0.5744424770375952 0.660597518827755
vn -0.9961946980917454 0.08715574274765944 4.949477202618148e-15
vn 0.9961946980917458 -0.08715574274765732 -6.530967827992198e-16
vn -0.44324372700220455 -0.19646639488667184 0.874606170886891
vn -0.9961946980917458 0.0871557427476557 2.6578786496033003e-15
vn 0.9961946980917455 -0.08715574274765786 6.339463210184534e-17
vn -0.0871342809227084 -0.9959493883100802 0.02219083172979169
vn -0.08713428092270877 -0.9959493883100801 0.02219083172979104
usemtl none
f 5/1/1 3/2/1 1/3/1
f 3/4/2 5/5/2 6/6/2 4/7/2
f 4/8/3 6/9/3 2/10/3
f 7/11/4 5/12/4 1/13/4
f 5/14/5 7/15/5 8/16/5 6/17/5
f 6/18/6 8/19/6 2/20/6
f 9/21/7 7/22/7 1/23/7
f 7/24/8 9/25/8 10/26/8 8/27/8
f 8/28/9 10/29/9 2/30/9
f 11/31/10 9/32/10 1/33/10
f 9/34/11 11/35/11 12/36/11 10/37/11
f 10/38/12 12/39/12 2/40/12
f 13/41/13 11/42/13 1/43/13
f 11/44/14 13/45/14 14/46/14 12/47/14
f 12/48/15 14/49/15 2/50/15
f 15/51/16 13/52/16 1/53/16
f 13/54/17 15/55/17 16/56/17 14/57/17
f 14/58/18 16/59/18 2/60/18
f 17/61/19 15/62/19 1/63/19
f 15/64/20 17/65/20 18/66/20 16/67/20
f 16/68/21 18/69/21 2/70/21
f 19/71/22 17/72/22 1/73/22
f 17/74/23 19/75/23 20/76/23 18/77/23
f 18/78/24 20/79/24 2/80/24
f 21/81/25 19/82/25 1/83/25
f 19/84/26 21/85/26 22/86/26 20/87/26
f 20/88/27 22/89/27 2/90/27
f 23/91/28 21/92/28 1/93/28
f 21/94/29 23/95/29 24/96/29 22/97/29
f 22/98/30 24/99/30 2/100/30
f 25/101/31 23/102/31 1/103/31
f 23/104/32 25/105/32 26/106/32 24/107/32
f 24/108/33 26/109/33 2/110/33
f 3/111/34 25/112/34 1/113/34
f 25/114/35 3/115/35 4/116/35 26/117/35
f 26/118/36 4/119/36 2/120/36
f 42/121/37 32/122/37 33/123/37 31/124/37
f 31/125/38 33/126/38 28/127/38
f 34/128/39 32/129/39 27/130/39
f 32/131/40 34/132/40 35/133/40 33/134/40
f 33/135/41 35/136/41 28/137/41
f 36/138/42 34/139/42 27/140/42
f 34/141/43 36/142/43 37/143/43 35/144/43
f 35/145/44 37/146/44 28/147/44
f 38/148/45 36/149/45 27/150/45
f 36/151/46 38/152/46 39/153/46 37/154/46
f 37/155/47 39/156/47 28/157/47
f 40/158/48 38/159/48 27/160/48
f 38/161/49 40/162/49 41/163/49 39/164/49
f 39/165/50 41/166/50 28/167/50
f 29/168/51 40/169/51 27/170/51
f 40/171/52 29/172/52 30/173/52 41/174/52
f 41/175/53 30/176/53 28/177/53
f 32/178/54 42/179/54 27/180/54
f 28/181/55 31/182/55 42/183/55 27/184/55
f 27/185/56 29/186/56 30/187/56 28/188/56